<?xml version="1.0" standalone="no"?>
<!DOCTYPE svg PUBLIC "-//W3C//DTD SVG 20010904//EN"
 "http://www.w3.org/TR/2001/REC-SVG-20010904/DTD/svg10.dtd">
<svg version="1.0" xmlns="http://www.w3.org/2000/svg"
 width="1171.000000pt" height="1280.000000pt" viewBox="0 0 1171.000000 1280.000000"
 preserveAspectRatio="xMidYMid meet">
<metadata>
Created by potrace 1.15, written by Peter Selinger 2001-2017
</metadata>
<g transform="translate(0.000000,1280.000000) scale(0.100000,-0.100000)"
fill="#000000" stroke="none">
<path d="M1773 12786 c-188 -43 -341 -173 -438 -371 -68 -137 -89 -239 -89
-420 0 -131 3 -163 27 -254 34 -128 107 -282 181 -379 l56 -73 0 -219 0 -218
-42 -15 c-24 -8 -133 -46 -244 -85 -229 -80 -257 -93 -280 -127 -10 -15 -26
-25 -40 -25 -13 0 -31 -8 -41 -19 -11 -11 -44 -23 -82 -29 -298 -52 -464 -360
-337 -628 64 -135 195 -235 331 -252 l60 -7 5 -410 c6 -516 -6 -483 230 -622
l150 -88 0 -395 c0 -217 3 -452 7 -521 l6 -126 -74 -35 c-52 -26 -93 -38 -137
-41 -173 -14 -319 -163 -352 -358 -30 -178 49 -394 182 -500 28 -21 53 -39 57
-39 3 0 12 -37 19 -82 7 -46 16 -105 22 -133 9 -51 59 -320 130 -702 23 -120
45 -240 50 -268 5 -27 27 -149 50 -270 22 -121 55 -294 71 -385 17 -91 38
-180 46 -198 20 -41 72 -82 105 -82 25 0 25 0 25 -93 0 -104 21 -176 72 -250
l31 -45 -34 -64 c-21 -41 -35 -85 -40 -125 -6 -58 -22 -87 -237 -450 -126
-213 -234 -404 -240 -423 -9 -28 -8 -44 4 -71 12 -29 12 -40 0 -74 -8 -22 -13
-70 -12 -107 2 -67 2 -68 -55 -151 -33 -48 -59 -98 -63 -120 -9 -60 19 -118
90 -182 34 -31 55 -53 47 -50 -22 8 -85 -49 -109 -98 -12 -25 -21 -63 -21 -89
0 -42 -2 -46 -21 -41 -19 5 -20 3 -14 -18 10 -32 41 -84 62 -100 14 -13 13
-15 -18 -19 l-34 -5 59 -29 c44 -21 80 -30 139 -34 47 -3 78 -1 75 4 -3 5 26
10 65 11 40 1 73 6 77 13 4 6 10 -13 13 -42 4 -29 22 -84 41 -122 l34 -69 -19
-31 c-35 -60 -149 -376 -149 -414 0 -20 9 -55 20 -77 13 -26 14 -32 4 -17
l-17 23 -18 -31 c-25 -41 -24 -45 6 -26 28 19 29 16 14 -38 -24 -87 39 -199
141 -251 26 -13 76 -29 111 -35 89 -14 599 -13 579 1 -12 9 -12 10 4 5 38 -13
276 -19 276 -7 0 6 17 -6 38 -27 47 -47 110 -66 184 -56 66 9 111 49 207 183
67 93 100 155 115 213 14 59 -46 136 -123 159 -38 11 -133 9 -162 -5 -13 -6
-17 2 -23 43 -9 67 -73 191 -139 272 -60 72 -156 158 -236 209 l-51 33 50 53
c55 58 56 62 65 192 5 74 2 99 -11 127 -15 32 -15 40 4 122 69 297 158 1010
192 1537 l9 149 84 141 c198 331 256 476 220 541 -8 13 -7 27 3 51 35 84 25
230 -22 330 -16 33 -16 33 20 69 49 49 69 93 100 215 108 437 164 1367 106
1775 -5 39 -9 174 -9 302 1 248 -5 289 -56 395 -13 27 -21 48 -17 46 4 -2 152
-112 328 -244 177 -133 331 -245 342 -248 11 -4 31 -24 45 -46 49 -73 149
-129 243 -135 29 -2 63 -10 76 -19 32 -23 560 -24 613 -2 33 14 35 14 35 -3 0
-10 20 -37 44 -59 l44 -40 -107 -106 c-142 -140 -141 -139 -151 -183 -18 -77
28 -163 99 -184 l37 -11 99 -532 c121 -651 75 -371 345 -2116 281 -1810 256
-1663 290 -1730 33 -65 50 -82 110 -109 43 -19 65 -21 400 -21 l355 0 -3 -50
c-4 -48 -6 -51 -46 -69 -72 -31 -238 -132 -301 -182 -153 -120 -248 -266 -290
-441 -19 -81 -19 -255 0 -336 33 -137 136 -309 237 -393 197 -164 450 -225
683 -164 73 19 205 82 265 127 25 19 71 49 103 68 117 70 230 201 290 336 59
133 76 317 43 458 -19 81 -19 81 65 90 111 13 214 55 334 136 39 26 96 65 127
85 85 54 178 160 224 254 l39 80 784 0 784 1 -7 -46 c-3 -26 -6 -53 -6 -60 0
-8 -5 -14 -11 -14 -23 0 -246 -136 -318 -194 -176 -142 -277 -335 -288 -552
-10 -172 34 -329 126 -461 168 -238 457 -367 728 -323 159 25 313 103 517 261
121 94 217 243 257 398 27 101 27 268 2 367 l-19 70 56 13 c84 20 163 60 300
152 147 98 197 142 256 225 60 84 94 162 119 269 19 82 27 100 100 204 44 63
135 187 202 276 131 175 220 306 249 370 18 38 19 98 22 1399 l2 1358 -42 -5
c-30 -4 -906 127 -2788 415 -1510 232 -2746 422 -2746 422 -1 1 -47 293 -102
650 l-101 649 22 29 c17 23 22 44 22 88 0 72 -21 105 -88 138 -76 39 -110 27
-222 -74 -68 -62 -100 -84 -120 -84 -36 0 -91 -27 -114 -56 -24 -30 -38 -31
-19 -1 25 38 27 65 8 90 -18 22 -23 22 -252 25 -173 2 -246 -1 -285 -11 l-52
-14 -27 41 c-15 22 -29 56 -30 75 -4 38 -65 136 -202 321 -238 321 -453 533
-621 611 -36 17 -72 34 -80 38 -8 4 -19 25 -26 46 -18 61 -39 96 -86 144 -43
42 -128 91 -160 91 -27 0 -29 25 -7 70 43 87 38 109 -150 606 -94 248 -174
467 -177 487 -6 30 -2 42 20 71 60 78 87 214 65 321 -27 132 -114 246 -230
303 -149 73 -305 63 -444 -29 l-47 -31 -60 26 c-33 15 -75 30 -94 33 l-34 6
50 56 c109 122 179 279 209 473 19 120 8 341 -23 460 -49 185 -153 362 -270
459 -64 54 -238 143 -338 174 -76 23 -220 28 -296 11z m1289 -3779 c32 -49 75
-97 88 -97 5 0 12 5 15 10 12 19 25 10 25 -18 0 -40 55 -145 93 -179 28 -24
32 -34 32 -78 0 -37 6 -59 24 -83 13 -19 229 -217 481 -440 251 -224 465 -414
474 -422 9 -8 31 -38 49 -66 l33 -51 -67 -1 c-64 -1 -172 -32 -184 -53 -10
-16 -33 -10 -40 10 -8 28 -82 99 -124 121 -20 10 -42 27 -48 39 -22 36 -257
313 -354 417 -303 325 -557 508 -722 521 -47 4 -81 1 -117 -11 -56 -18 -70
-15 -70 15 0 32 -49 121 -92 165 -35 37 -37 42 -21 48 10 4 110 41 223 82 112
41 218 83 235 94 16 10 32 19 35 19 3 1 17 -18 32 -42z m-557 -1018 c30 -23
55 -42 55 -43 0 -1 -29 -2 -64 -2 l-64 0 -4 48 c-4 57 -2 56 77 -3z m2265
-554 c-13 -14 -26 -23 -28 -20 -3 3 5 16 18 30 13 14 26 23 28 20 3 -3 -5 -16
-18 -30z m354 14 c-13 -14 -21 -16 -35 -8 -29 15 -23 24 16 25 33 0 34 -1 19
-17z m626 -561 l69 -443 -37 -36 c-181 -180 -776 -749 -779 -746 -2 2 -46 222
-97 488 -76 393 -91 487 -81 499 6 8 15 22 18 31 4 11 13 15 30 12 19 -4 33 6
72 49 93 103 204 247 223 290 12 25 59 82 116 138 l96 95 0 -56 c0 -43 5 -60
19 -73 27 -24 59 -12 76 27 8 18 14 26 15 20 0 -7 9 -13 20 -13 12 0 46 31 92
85 39 47 73 83 76 80 2 -2 35 -203 72 -447z m84 -627 c4 -6 106 -838 106 -864
0 -5 -300 29 -306 35 -5 6 -74 503 -74 540 0 20 29 58 127 162 69 75 130 136
134 136 4 0 10 -4 13 -9z m597 -121 c714 -98 1458 -200 1468 -200 6 0 20 -9
31 -20 19 -19 20 -33 20 -355 0 -184 -4 -335 -9 -335 -9 0 -729 75 -1300 135
-218 23 -329 38 -338 47 -8 9 -32 151 -66 386 -46 328 -50 372 -36 372 9 0
113 -13 230 -30z m2529 -360 c596 -89 677 -104 693 -122 15 -18 17 -48 17
-309 l0 -289 -22 4 c-13 3 -52 7 -88 10 -36 3 -334 31 -664 61 -329 30 -603
55 -607 55 -5 0 -18 9 -29 20 -19 19 -20 33 -20 351 l0 331 23 -5 c12 -3 326
-51 697 -107z m-3600 2 c0 -5 9 -73 20 -152 11 -79 20 -151 20 -160 0 -14 -13
-14 -147 2 -82 9 -150 17 -152 17 -2 1 0 13 4 29 3 15 56 78 123 148 112 116
132 134 132 116z m5493 -291 c258 -39 477 -76 488 -82 15 -8 19 -21 19 -63 0
-52 -1 -54 -137 -234 l-138 -182 -55 6 c-30 3 -276 27 -547 53 -326 31 -497
52 -507 60 -14 12 -16 51 -16 295 l0 282 213 -32 c116 -18 423 -64 680 -103z
m-5513 -354 l105 -12 11 -69 c12 -77 31 -100 77 -93 18 2 27 -1 27 -10 0 -8
-51 -68 -112 -135 -62 -66 -129 -139 -149 -161 -51 -58 -64 -48 -79 60 -7 48
-25 166 -40 261 l-26 172 40 -1 c23 0 88 -6 146 -12z m365 -47 c-3 -5 -10 -10
-16 -10 -5 0 -9 5 -9 10 0 6 7 10 16 10 8 0 12 -4 9 -10z m306 -383 c26 -194
45 -353 44 -355 -5 -6 -280 19 -286 26 -12 12 -62 409 -55 435 3 13 56 79 117
146 82 91 114 120 123 111 6 -6 32 -169 57 -363z m689 297 c183 -17 283 -31
298 -40 l22 -14 0 -330 c0 -257 -3 -330 -12 -330 -7 0 -136 7 -287 17 -258 16
-274 18 -282 37 -4 12 -26 161 -49 331 -22 171 -43 323 -46 338 -6 28 -6 28
38 23 23 -3 167 -18 318 -32z m955 -97 l290 -32 3 -322 c1 -216 -1 -323 -8
-323 -6 0 -133 7 -282 15 -219 13 -276 19 -290 32 -16 14 -18 46 -20 339 -2
212 0 324 7 323 6 0 141 -15 300 -32z m882 -97 c153 -16 292 -32 310 -35 64
-11 63 -8 63 -316 l0 -279 -47 0 c-27 0 -158 7 -293 15 -135 8 -264 15 -287
15 l-43 0 0 315 c0 202 4 315 10 315 5 0 135 -13 287 -30z m933 -103 l195 -22
3 -274 2 -274 -137 7 c-208 10 -273 17 -289 33 -11 12 -14 63 -14 284 l0 269
23 -1 c12 0 110 -10 217 -22z m1807 -51 c1 -1 3 -79 4 -173 l2 -171 -63 -83
c-35 -46 -67 -88 -72 -93 -4 -6 -8 112 -8 261 l0 271 68 -5 c37 -3 68 -6 69
-7z m-922 -47 c280 -31 385 -46 398 -57 15 -14 17 -39 17 -250 l0 -234 -82 6
c-46 3 -204 13 -353 21 -148 9 -294 18 -322 21 l-53 5 0 265 c0 145 3 264 8
264 4 0 178 -18 387 -41z m-4826 -81 c7 -46 14 -96 17 -113 l5 -30 -98 6 c-54
4 -106 7 -116 8 -14 1 8 30 79 106 53 58 98 105 99 105 2 0 8 -37 14 -82z
m-45 -498 c50 0 97 -4 104 -9 7 -4 19 -51 27 -110 17 -119 26 -140 66 -148 16
-3 29 -10 29 -15 0 -10 -254 -278 -277 -291 -8 -5 -15 -3 -18 5 -7 21 -85 533
-85 558 0 20 4 22 31 16 17 -3 73 -6 123 -6z m5792 -27 c-10 -10 -19 5 -10 18
6 11 8 11 12 0 2 -7 1 -15 -2 -18z m-5326 0 c0 -5 -23 -33 -50 -63 -56 -63
-65 -61 -76 18 l-7 52 67 0 c36 0 66 -3 66 -7z m800 -53 c113 -6 220 -13 238
-16 l32 -5 0 -329 0 -330 -32 0 c-18 0 -108 5 -200 11 -130 10 -171 16 -182
28 -9 10 -32 129 -60 311 -26 162 -49 307 -52 322 -5 26 -3 27 23 23 15 -2
120 -9 233 -15z m880 -55 c118 -8 230 -15 248 -15 18 0 40 -8 52 -20 19 -19
20 -33 20 -324 0 -168 -3 -306 -7 -308 -5 -2 -133 -1 -285 3 -198 4 -282 10
-293 19 -12 10 -15 63 -17 336 l-3 324 35 0 c19 0 132 -7 250 -15z m-1459
-311 c26 -164 46 -300 44 -302 -1 -1 -71 1 -156 5 l-153 8 -24 150 c-14 92
-20 159 -15 172 11 31 234 274 248 270 5 -2 31 -138 56 -303z m2404 261 c160
-8 300 -15 313 -15 l22 0 0 -312 0 -311 -326 6 c-179 4 -330 9 -335 12 -5 4
-9 139 -9 321 l0 314 23 0 c12 0 153 -7 312 -15z m920 -42 c115 -5 141 -9 157
-25 17 -17 18 -40 18 -303 l0 -285 -117 1 c-191 1 -302 12 -313 29 -6 9 -10
139 -10 303 l0 287 63 0 c35 0 126 -3 202 -7z m870 -38 c187 -9 355 -18 373
-21 l32 -5 0 -289 0 -290 -87 5 c-49 3 -231 8 -405 11 l-318 6 0 299 0 299 33
0 c17 0 185 -7 372 -15z m915 -153 c0 -59 3 -116 6 -128 5 -18 -48 -99 -133
-204 -10 -12 -12 33 -13 215 l0 230 70 -3 70 -4 0 -106z m-5588 -273 c2 -23
-1 -34 -9 -33 -7 1 -34 2 -60 3 l-47 1 49 50 c54 55 59 53 67 -21z m5588 -217
c0 -37 -1 -38 -30 -34 l-29 4 26 34 c14 19 27 34 29 34 2 0 4 -17 4 -38z
m-5532 -177 c3 -2 16 -75 29 -160 l24 -156 -107 -114 c-59 -63 -110 -115 -113
-115 -3 0 -23 116 -44 258 -22 141 -41 268 -44 281 l-6 24 128 -6 c70 -4 130
-9 133 -12z m305 -1 l46 -7 -56 -59 c-63 -65 -66 -64 -77 20 -8 59 -8 59 87
46z m896 -1026 c-12 -44 -118 -151 -135 -137 -10 8 -7 25 12 77 14 37 27 73
29 80 3 7 23 12 54 12 l50 0 -10 -32z m539 -1 l32 -33 -42 -63 -41 -63 -72 74
c-40 40 -76 83 -80 96 -6 22 -5 22 82 22 87 0 90 -1 121 -33z m2717 6 c-3 -16
-15 -37 -26 -48 -20 -20 -20 -20 -2 28 19 50 40 65 28 20z m532 -4 c31 -31 32
-32 16 -63 -9 -17 -27 -46 -41 -64 l-25 -33 -64 63 c-56 55 -93 104 -93 123 0
3 39 5 87 5 84 0 88 -1 120 -31z m-3576 -18 c29 -29 29 -31 29 -140 l0 -111
-44 0 c-24 0 -58 3 -76 6 l-32 7 4 113 c3 92 8 117 23 134 26 28 62 25 96 -9z
m3232 17 c41 -22 46 -39 47 -155 l0 -113 -47 0 c-95 0 -93 -3 -93 124 0 85 4
117 16 134 17 24 44 28 77 10z m-4376 -545 c-6 -51 -13 -93 -17 -93 -3 0 -38
33 -78 73 l-72 73 51 58 52 58 38 -39 37 -38 -11 -92z m3343 62 c-5 -27 -9
-69 -9 -92 -1 -24 -5 -43 -9 -43 -11 0 -122 114 -122 125 0 6 21 34 46 63 l47
54 28 -29 c25 -26 27 -31 19 -78z m-3388 -263 c17 -17 23 -34 23 -67 0 -68
-17 -79 -129 -83 l-93 -4 -5 49 c-2 26 -2 68 0 91 l4 44 89 -4 c76 -3 92 -6
111 -26z m743 11 c4 -10 9 -50 12 -90 l6 -72 -68 3 c-62 2 -71 5 -97 34 -36
41 -38 89 -4 101 13 5 26 17 29 25 9 24 112 23 122 -1z m2616 -12 c35 -35 39
-86 10 -122 -18 -22 -27 -24 -113 -24 l-93 0 -3 88 -3 87 86 0 c82 0 88 -1
116 -29z m748 7 c4 -13 11 -53 15 -90 l7 -68 -43 0 c-58 0 -111 16 -132 39
-23 26 -24 82 -3 115 16 24 23 26 82 26 59 0 66 -2 74 -22z m-4012 -260 c53
-51 47 -83 -32 -165 l-65 -68 -61 64 -61 64 68 68 c79 80 101 85 151 37z m546
-37 l72 -69 -25 -47 c-14 -25 -34 -55 -46 -66 -20 -19 -20 -19 -97 60 -65 67
-77 84 -77 113 0 49 24 78 66 78 29 0 46 -11 107 -69z m2818 42 c22 -22 29
-37 29 -67 0 -34 -8 -46 -65 -105 l-64 -66 -44 43 c-25 24 -50 55 -58 68 -12
23 -9 28 51 89 75 75 103 82 151 38z m546 -46 l74 -72 -40 -63 c-22 -34 -44
-62 -49 -62 -17 0 -151 147 -157 172 -4 14 0 41 9 62 13 32 19 36 52 36 32 0
46 -9 111 -73z m-3675 -38 c34 -18 48 -70 48 -179 l0 -100 -49 0 c-27 0 -63 3
-81 6 l-32 7 3 117 c3 99 7 121 23 139 21 23 56 27 88 10z m3379 -18 c29 -29
29 -31 29 -145 l0 -116 -52 0 c-101 0 -98 -4 -98 129 0 89 4 122 16 139 22 32
68 29 105 -7z m-7488 -148 c-7 -2 -21 -2 -30 0 -10 3 -4 5 12 5 17 0 24 -2 18
-5z"/>
<path d="M817 1799 c7 -7 15 -10 18 -7 3 3 -2 9 -12 12 -14 6 -15 5 -6 -5z"/>
<path d="M940 1760 c8 -5 22 -9 30 -9 10 0 8 3 -5 9 -27 12 -43 12 -25 0z"/>
</g>
</svg>
